<svg width="1123" height="483" viewBox="0 0 1123 483" fill="none" xmlns="http://www.w3.org/2000/svg">
<rect width="482" height="1122" transform="translate(1122.74 0.260548) scale(1.00066) rotate(90)" fill="#656565"/>
<path d="M914.896 257.485C913.438 256.527 911.009 256.527 909.551 257.645L850.757 298.54L781.274 304.291L701.829 292.63L766.94 251.734L781.517 261.479C782.974 262.438 785.404 262.438 786.861 261.479C788.319 260.521 788.319 258.923 786.861 257.965L747.261 231.447L839.339 173.778C840.796 172.82 840.796 171.222 839.582 170.264C838.124 169.305 835.694 169.305 834.237 170.104L741.187 228.411L726.61 223.939L664.901 178.411L735.356 139.273C735.599 139.113 735.842 139.113 736.328 138.953C736.571 138.794 736.814 138.634 737.057 138.314L788.805 109.56C789.534 109.081 790.02 108.442 790.263 107.803C790.263 107.164 790.02 106.525 789.291 106.046L723.695 56.0449C719.078 52.5305 711.304 52.0513 705.959 54.9267L669.031 74.0963C663.443 76.9717 662.471 82.0836 666.844 85.9175L728.796 136.557L660.042 174.577L506.254 60.9971L530.792 48.0576L578.653 84.7993C585.942 90.3904 598.575 91.1892 607.564 86.5565L677.534 49.6551C678.263 49.1758 678.749 48.6966 678.992 48.0576L683.122 25.5333C683.365 24.2554 681.907 22.9774 679.721 22.8176C677.534 22.6579 675.833 23.6164 675.59 25.0541L671.703 46.6199L651.295 57.4826L595.417 15.629C592.016 13.0731 585.942 12.7536 581.812 14.8303L500.667 57.8021L429.968 5.565C428.511 4.60652 426.081 4.44677 424.623 5.40525C423.894 5.88449 423.409 6.52347 423.409 7.32221C423.409 7.96119 423.652 8.44043 424.38 8.91967L545.369 98.218L474.914 226.335L448.675 222.82C446.732 222.501 444.545 223.459 444.302 224.737C444.302 224.897 444.302 225.057 444.302 225.217C444.302 226.335 445.517 227.453 447.218 227.613L579.868 245.664C581.812 245.984 583.998 245.025 584.241 243.747C584.727 242.469 583.27 241.031 581.326 240.872L482.445 227.293L551.2 102.371L568.935 115.471C564.562 117.388 556.302 122.02 556.302 130.008C556.302 130.327 556.302 130.487 556.302 130.806C556.302 131.286 556.545 131.925 557.274 132.244L568.207 141.03C569.421 142.148 571.851 142.308 573.552 141.35C575.252 140.551 575.495 138.953 574.037 137.835L563.834 129.688C564.076 123.458 571.365 120.103 573.795 119.145L684.58 200.935L635.018 229.53C630.888 231.926 628.701 235.44 628.701 238.955C628.701 241.83 630.159 244.706 633.317 247.102L647.651 257.965C651.053 260.521 655.669 262.118 660.771 262.278C665.872 262.438 670.974 261.319 674.619 259.083L724.423 229.21L739.243 233.683L761.109 248.38L692.354 291.511L622.384 281.288C620.441 280.968 618.254 281.767 617.768 283.205C617.768 283.364 617.768 283.524 617.768 283.684C617.768 284.802 618.983 285.92 620.684 286.08L779.573 309.243C780.059 309.243 780.545 309.243 780.788 309.243L852.215 303.333C853.187 303.333 853.916 303.013 854.401 302.534L914.167 260.84C916.597 260.041 916.354 258.444 914.896 257.485ZM672.189 83.0421C670.489 81.4446 670.974 79.3679 673.161 78.2497L710.089 59.0801C712.276 57.9619 715.677 58.1216 717.378 59.5593L780.545 107.643L733.898 133.522L672.189 83.0421ZM586.671 18.5045C587.643 18.0252 588.857 18.0252 589.829 18.6642L645.465 60.3581L602.22 83.0421C596.632 85.9175 588.614 85.4383 583.998 81.9239L536.38 45.1821L586.671 18.5045ZM669.76 255.409C667.573 256.846 664.415 257.485 661.499 257.326C658.341 257.166 655.669 256.207 653.482 254.77L639.148 243.907C635.018 240.872 635.504 236.079 640.363 233.364L689.924 204.769L718.836 226.175L669.76 255.409Z" fill="white" stroke="#BBB4B5" stroke-width="0.5206" stroke-miterlimit="10"/>
<path d="M519.13 480.011L520.101 454.612L573.065 455.091L562.132 472.503C561.403 473.781 562.375 475.219 564.075 475.858C566.019 476.337 568.206 475.698 568.934 474.58L581.568 454.612C581.811 454.292 581.811 454.133 581.811 453.813C581.811 453.813 581.811 453.813 581.811 453.653L581.811 451.896L584.726 396.144C584.726 395.186 583.997 394.387 582.782 393.908L531.034 375.218C530.548 375.058 530.062 374.898 529.334 374.898L463.737 372.821L462.036 361.479L500.908 311.159L780.301 397.902L756.492 430.969L725.394 449.979L671.702 406.688C670.487 405.57 668.058 405.41 666.357 406.368C665.385 406.847 664.9 407.646 664.9 408.285C664.9 408.764 665.143 409.403 665.871 409.883L681.177 422.343L643.763 451.736C643.277 452.216 642.791 452.695 642.791 453.334C642.791 453.973 643.277 454.771 644.249 455.251C645.949 456.209 648.136 456.049 649.594 454.931L686.279 426.177L699.641 436.88L647.407 468.989C646.678 469.468 646.192 470.107 646.192 470.746C646.192 471.385 646.435 472.024 647.164 472.503C648.622 473.462 651.051 473.622 652.509 472.663L704.257 440.714L744.344 472.983C745.559 474.101 747.988 474.261 749.689 473.302C751.39 472.503 751.633 470.906 750.175 469.788L730.253 453.653L762.079 434.164C762.322 434.004 762.808 433.685 762.808 433.365L786.86 399.819L793.177 401.736C803.624 404.931 816.014 403.173 823.546 397.422L827.433 394.547L919.511 430.969C921.212 431.608 923.641 431.289 924.613 430.171C925.585 429.052 925.099 427.455 923.398 426.816L832.535 390.873L892.786 344.546C894.973 342.789 894.73 340.233 892.058 338.636C889.385 337.198 885.498 337.358 883.068 339.115L814.071 392.151C810.184 395.026 804.11 395.985 798.765 394.228L506.253 303.332L499.937 301.415L178.757 201.573L204.024 185.439C204.51 185.119 204.753 184.8 205.239 184.48L232.692 152.052C232.935 152.691 233.664 153.17 234.636 153.489L250.913 158.921C251.156 159.08 251.399 159.08 251.642 159.08L395.468 182.563C396.44 182.723 397.412 182.563 398.384 182.244C399.355 181.924 399.841 181.285 400.084 180.646L426.809 105.086C427.295 103.808 426.08 102.37 423.893 102.051C421.95 101.731 419.763 102.53 419.277 103.968L393.525 177.132L253.829 154.288L237.794 149.016C236.822 148.697 236.093 148.697 235.121 148.857L284.44 90.3895L350.523 112.754C355.381 114.511 361.212 114.671 366.557 113.553C371.902 112.275 376.032 109.879 378.462 106.524L394.011 83.9996C394.982 82.7216 394.011 81.2839 392.067 80.6449C390.123 80.0059 387.937 80.6449 386.965 81.9229L371.416 104.447C369.959 106.524 367.286 108.121 364.128 108.92C360.726 109.719 357.325 109.559 354.167 108.441L288.084 86.0763L355.624 6.36276C357.325 4.28605 356.11 1.88985 353.195 0.771628C350.037 -0.346599 346.392 0.452134 344.692 2.36909L194.549 179.848L166.852 197.579L166.61 197.739L70.4015 167.867C67.2431 166.908 63.3559 167.707 61.8982 169.784C61.4123 170.422 61.1693 170.902 61.1693 171.541C61.1693 173.138 62.627 174.576 64.8136 175.375L151.547 202.372L56.5533 314.993C56.0674 315.632 55.8245 316.271 55.8245 317.07C55.8245 318.508 57.0391 319.945 58.9827 320.744C62.1411 321.862 65.7854 321.064 67.486 319.147L162.965 206.046L411.503 283.204L387.937 313.875L273.022 269.945C271.321 269.306 268.891 269.625 267.92 270.903C267.677 271.223 267.434 271.702 267.434 272.181C267.434 272.98 268.163 273.938 269.377 274.418L321.126 294.226L293.429 325.856L232.935 303.971C225.889 301.415 217.143 303.012 213.013 307.485L161.265 362.438C159.807 364.035 159.078 365.793 159.078 367.71C159.078 368.508 159.321 369.467 159.564 370.266C160.536 372.821 163.451 375.058 166.852 376.336L230.019 398.7L207.425 424.579C205.239 427.135 201.594 428.893 197.464 429.531C193.091 430.17 188.718 429.851 185.074 428.254L124.093 403.173C123.85 403.014 123.607 403.014 123.364 402.854L72.102 391.192C70.1584 390.713 67.9719 391.512 67.2431 392.79C67.0001 393.109 67.0002 393.269 67.0002 393.589C67.0002 394.547 67.9719 395.665 69.6725 395.985L120.449 407.486L180.944 432.407C186.531 434.643 192.848 435.282 199.165 434.324C205.482 433.365 210.583 430.65 213.985 426.976L296.588 332.565L340.804 348.54C342.748 349.179 344.935 348.7 345.906 347.582C346.878 346.304 346.149 344.866 344.449 344.227L300.475 328.252L328.171 296.622L388.18 319.626C389.152 319.945 390.123 320.105 391.095 319.786C392.067 319.626 393.039 319.147 393.525 318.508L418.791 285.44L494.106 308.763L454.991 359.563C454.748 359.882 454.505 360.361 454.505 360.681C454.505 360.84 454.505 360.84 454.505 361L456.692 375.218L451.59 469.468L451.59 469.628C451.59 470.906 453.29 472.024 455.234 472.184C457.42 472.184 459.121 471.225 459.121 469.788L464.223 377.774L528.362 379.691L577.195 397.422L574.522 450.139L520.344 449.66L520.83 433.206C520.83 431.928 519.13 430.65 517.186 430.65C515 430.65 513.299 431.768 513.299 433.046L512.57 450.938L512.57 452.855L511.598 479.692C511.598 480.97 513.299 482.088 515.242 482.248C517.429 482.408 519.13 481.289 519.13 480.011ZM290.028 330.329L233.907 394.387L170.497 372.023C168.553 371.384 167.338 370.266 166.852 368.988C166.367 367.71 166.61 366.272 167.824 365.154L219.573 310.201C221.759 307.964 225.889 307.166 229.534 308.444L290.028 330.329Z" fill="white" stroke="#BBB4B5" stroke-width="0.5206" stroke-miterlimit="10"/>
<path d="M893.516 335.441C892.788 335.92 892.545 336.559 892.545 337.198C892.545 337.837 893.031 338.476 893.759 338.955C895.217 339.914 897.647 339.914 899.104 338.795L990.453 275.855L1023.25 295.983L981.95 329.37C980.735 330.329 980.735 331.767 982.193 332.725L1116.3 417.87C1117.76 418.828 1120.19 418.828 1121.65 417.87C1123.1 416.912 1123.1 415.314 1121.65 414.356L989.725 330.968L1031.03 297.421C1032.24 296.463 1032.24 294.865 1030.78 294.066L992.64 270.743C991.182 269.785 988.753 269.785 987.295 270.903L893.516 335.441Z" fill="white" stroke="#BBB4B5" stroke-width="0.5206" stroke-miterlimit="10"/>
<path d="M1102.7 221.86L873.594 82.5605C872.137 81.602 869.707 81.7617 868.249 82.7202C867.52 83.1994 867.278 83.8384 867.278 84.4774C867.278 85.1164 867.763 85.7554 868.492 86.2346L1097.59 225.534L1061.15 252.211C1055.32 256.365 1045.6 256.844 1038.8 253.33L1021.79 244.064C1020.09 243.266 1017.91 243.266 1016.45 244.384C1015.96 244.863 1015.48 245.342 1015.48 245.981C1015.48 246.62 1015.96 247.419 1016.93 247.898L1033.94 257.163C1043.66 262.435 1058.24 261.796 1066.74 255.566L1121.4 215.629C1122.86 214.671 1122.62 213.073 1121.16 212.115C1119.7 211.156 1117.27 211.316 1115.82 212.275L1102.7 221.86Z" fill="white" stroke="#BBB4B5" stroke-width="0.5206" stroke-miterlimit="10"/>
<path d="M998.956 56.6831C998.956 57.3221 999.442 57.9611 1000.17 58.6001L1116.06 128.729C1117.52 129.687 1119.95 129.528 1121.4 128.569C1122.86 127.611 1122.62 126.013 1121.16 125.055L1005.27 54.9259C1003.82 53.9674 1001.39 54.1272 999.928 55.0857C999.199 55.5649 998.956 56.0441 998.956 56.6831Z" fill="white" stroke="#BBB4B5" stroke-width="0.5206" stroke-miterlimit="10"/>
<path d="M884.527 25.2132L864.605 4.92536C863.39 3.80713 861.204 3.48764 859.26 4.12663C858.045 4.60587 857.56 5.4046 857.56 6.20333C857.56 6.68257 857.803 7.16181 858.045 7.4813L879.911 29.6861L884.77 48.6959L825.004 72.8177C819.659 74.8944 812.371 73.7761 808.97 70.2617L748.961 6.84231C747.746 5.72409 745.56 5.24485 743.616 6.04358C742.401 6.52282 741.915 7.32155 741.915 8.12029C741.915 8.59953 742.158 9.07876 742.401 9.39826L802.41 72.8177C807.998 78.7283 819.659 80.4855 828.649 76.9711L888.9 53.3286L932.874 82.5622C934.332 83.5207 936.761 83.5207 938.219 82.5622L965.186 65.4693C966.644 64.5108 966.644 62.9134 965.186 61.9549C963.729 60.9964 961.299 60.9964 959.841 61.9549L935.303 77.4503L893.759 49.8141C893.759 49.4947 893.516 49.0154 893.273 48.6959C893.03 48.3764 892.544 48.0569 892.058 47.8972L887.685 30.1653L928.987 5.08511C930.444 4.12663 930.687 2.52917 929.23 1.57069C927.772 0.612208 925.343 0.452457 923.885 1.41094L884.527 25.2132Z" fill="white" stroke="#BBB4B5" stroke-width="0.5206" stroke-miterlimit="10"/>
</svg>
