<svg width="36" height="36" viewBox="0 0 36 36" fill="none" xmlns="http://www.w3.org/2000/svg">
<path d="M30.375 23.0626H30.1894L28.1588 18.3263C28.5031 18.4772 28.8741 18.5575 29.25 18.5626C29.3992 18.5626 29.5423 18.5033 29.6477 18.3978C29.7532 18.2923 29.8125 18.1492 29.8125 18.0001V13.5001C29.8125 13.3509 29.7532 13.2078 29.6477 13.1023C29.5423 12.9968 29.3992 12.9376 29.25 12.9376C28.6642 12.9407 28.0941 13.1267 27.6191 13.4696C27.1441 13.8125 26.7881 14.2951 26.6006 14.8501C26.4351 14.619 26.2239 14.4243 25.98 14.2782C25.7362 14.1321 25.465 14.0377 25.1831 14.0007C24.8258 13.9545 24.463 13.9774 24.1144 14.0682H23.625C22.6744 14.0682 22.2525 13.5057 21.5888 12.5888L21.2569 12.1219C21.5973 12.1046 21.9271 11.9979 22.2131 11.8126C22.4302 11.655 22.614 11.4561 22.7539 11.2274C22.8939 10.9986 22.9873 10.7444 23.0287 10.4794C23.2116 10.3741 23.3715 10.2332 23.499 10.0651C23.6265 9.89705 23.7191 9.70512 23.7712 9.50068C23.795 9.33943 23.7793 9.17482 23.7254 9.021C23.6715 8.86717 23.5811 8.72873 23.4619 8.61756C23.2322 8.22433 23.1064 7.7791 23.0963 7.32381C23.2415 7.31511 23.3777 7.25049 23.4763 7.14351C23.5749 7.03653 23.6282 6.89551 23.625 6.75006C23.6251 6.15387 23.5066 5.56361 23.2766 5.01357C23.0466 4.46353 22.7096 3.96468 22.2852 3.546C21.8607 3.12732 21.3573 2.79715 20.8042 2.57468C20.2511 2.3522 19.6593 2.24186 19.0631 2.25006C17.8933 2.27309 16.7778 2.74807 15.9504 3.57544C15.123 4.40281 14.648 5.51833 14.625 6.68818C14.6145 7.2846 14.7235 7.87708 14.9457 8.43065C15.1679 8.98423 15.4988 9.48769 15.9187 9.91131C16.0432 10.035 16.1747 10.1515 16.3125 10.2601C14.1412 10.7888 12.9994 12.8251 12.4144 14.5913C12.2479 14.4236 12.0499 14.2905 11.8317 14.1997C11.6135 14.109 11.3794 14.0623 11.1431 14.0626H5.16937C4.86939 14.0621 4.5741 14.137 4.31067 14.2805C4.04724 14.424 3.82413 14.6315 3.66188 14.8838C3.58057 15.0091 3.55238 15.1616 3.58349 15.3077C3.61461 15.4538 3.7025 15.5816 3.82781 15.6629C3.95313 15.7442 4.10561 15.7724 4.25171 15.7413C4.39781 15.7101 4.52557 15.6222 4.60687 15.4969C4.66748 15.403 4.75082 15.326 4.84915 15.2729C4.94748 15.2198 5.05763 15.1924 5.16937 15.1932H6.1875V16.8807C6.1875 17.0299 6.24676 17.1729 6.35225 17.2784C6.45774 17.3839 6.60082 17.4432 6.75 17.4432H9.5625C9.71168 17.4432 9.85476 17.3839 9.96025 17.2784C10.0657 17.1729 10.125 17.0299 10.125 16.8807V15.1876H11.1431C11.231 15.1876 11.3181 15.2049 11.3993 15.2385C11.4805 15.2722 11.5543 15.3215 11.6164 15.3836C11.6786 15.4458 11.7279 15.5196 11.7615 15.6008C11.7952 15.682 11.8125 15.769 11.8125 15.8569V20.1488C11.811 20.3254 11.7398 20.4942 11.6145 20.6185C11.4891 20.7428 11.3197 20.8126 11.1431 20.8126H5.16937C5.00828 20.817 4.85115 20.7622 4.72778 20.6585C4.6044 20.5549 4.52335 20.4095 4.5 20.2501H5.625C5.77418 20.2501 5.91726 20.1908 6.02275 20.0853C6.12824 19.9798 6.1875 19.8367 6.1875 19.6876C6.1875 19.5384 6.12824 19.3953 6.02275 19.2898C5.91726 19.1843 5.77418 19.1251 5.625 19.1251H4.5V18.0001H5.0625C5.21168 18.0001 5.35476 17.9408 5.46025 17.8353C5.56574 17.7298 5.625 17.5867 5.625 17.4376C5.625 17.2884 5.56574 17.1453 5.46025 17.0398C5.35476 16.9343 5.21168 16.8751 5.0625 16.8751H2.25C2.10082 16.8751 1.95774 16.9343 1.85225 17.0398C1.74676 17.1453 1.6875 17.2884 1.6875 17.4376C1.6875 17.5867 1.74676 17.7298 1.85225 17.8353C1.95774 17.9408 2.10082 18.0001 2.25 18.0001H3.375V19.1251H1.125C0.975816 19.1251 0.832742 19.1843 0.727252 19.2898C0.621763 19.3953 0.5625 19.5384 0.5625 19.6876C0.5625 19.8367 0.621763 19.9798 0.727252 20.0853C0.832742 20.1908 0.975816 20.2501 1.125 20.2501H3.375C3.40083 20.7057 3.59987 21.1343 3.93136 21.448C4.26285 21.7617 4.70172 21.9369 5.15812 21.9376H7.97062C7.71033 22.1928 7.48862 22.4846 7.3125 22.8038C6.56134 24.2769 6.17549 25.909 6.1875 27.5626C6.1875 27.7117 6.24676 27.8548 6.35225 27.9603C6.45774 28.0658 6.60082 28.1251 6.75 28.1251H8.47687C8.62083 29.2061 9.15248 30.1981 9.97296 30.9165C10.7934 31.635 11.8469 32.0311 12.9375 32.0311C14.0281 32.0311 15.0816 31.635 15.902 30.9165C16.7225 30.1981 17.2542 29.2061 17.3981 28.1251H25.9144C26.0226 28.9845 26.3767 29.7943 26.9339 30.4575C27.4911 31.1206 28.2279 31.6089 29.0558 31.8636C29.8837 32.1183 30.7675 32.1287 31.6011 31.8934C32.4348 31.6582 33.1828 31.1874 33.7554 30.5375C34.3281 29.8876 34.701 29.0862 34.8294 28.2296C34.9578 27.373 34.8362 26.4975 34.4793 25.7083C34.1224 24.9191 33.5453 24.2496 32.8172 23.7803C32.0892 23.311 31.2412 23.0618 30.375 23.0626ZM9 16.3126H7.3125V15.1876H9V16.3126ZM28.6875 14.1582V17.3419C28.3579 17.226 28.0724 17.0106 27.8704 16.7254C27.6685 16.4403 27.56 16.0995 27.56 15.7501C27.56 15.4006 27.6685 15.0598 27.8704 14.7747C28.0724 14.4896 28.3579 14.2741 28.6875 14.1582ZM25.02 15.1088C25.2405 15.1418 25.4454 15.2423 25.6065 15.3964C25.7677 15.5504 25.8772 15.7506 25.92 15.9694L26.0662 16.3126C25.2831 16.7151 24.4093 16.9089 23.5294 16.8751C23.4519 16.5409 23.4925 16.1902 23.6442 15.8826C23.796 15.575 24.0496 15.3294 24.3619 15.1876C24.574 15.1188 24.7979 15.0939 25.02 15.1144V15.1088ZM22.2469 9.61881C22.1533 9.66598 22.0747 9.73838 22.02 9.82783C21.9654 9.91728 21.9368 10.0202 21.9375 10.1251C21.9333 10.2667 21.8997 10.4058 21.8387 10.5337C21.7776 10.6616 21.6906 10.7753 21.5831 10.8676C21.2625 11.0813 20.6663 11.0307 19.8956 10.7269C19.8545 10.7224 19.813 10.7224 19.7719 10.7269L19.6875 10.6538V8.49943C19.6875 8.18466 19.8125 7.88277 20.0351 7.66019C20.2577 7.4376 20.5596 7.31256 20.8744 7.31256H21.9375C21.9552 8.0407 22.1838 8.74805 22.5956 9.34881C22.4939 9.45766 22.3763 9.55058 22.2469 9.62443V9.61881ZM15.75 6.69943C15.7781 5.82668 16.1374 4.99736 16.7549 4.37991C17.3723 3.76246 18.2016 3.40319 19.0744 3.37506H19.125C19.923 3.37454 20.6953 3.65677 21.3049 4.17165C21.9145 4.68653 22.322 5.40076 22.455 6.18756H20.8744C20.2617 6.18904 19.6745 6.43309 19.2413 6.86633C18.808 7.29957 18.564 7.88674 18.5625 8.49943V10.0801C17.768 9.94585 17.0478 9.53182 16.5319 8.91283C16.0161 8.29384 15.7387 7.51073 15.75 6.70506V6.69943ZM17.4375 11.2501C19.2769 11.2501 19.9519 12.2119 20.6663 13.2244C21.1838 13.9669 21.7913 14.7769 22.8038 15.0638C22.4852 15.5784 22.3412 16.1821 22.3931 16.7851C21.695 16.6325 21.0365 16.3355 20.46 15.9131C19.8836 15.4907 19.402 14.9523 19.0462 14.3326C19.0156 14.2582 18.9694 14.1913 18.9107 14.1363C18.852 14.0814 18.7822 14.0396 18.706 14.0139C18.6298 13.9882 18.549 13.9792 18.469 13.9873C18.389 13.9955 18.3117 14.0208 18.2422 14.0614C18.1728 14.102 18.1129 14.157 18.0666 14.2227C18.0202 14.2884 17.9885 14.3633 17.9735 14.4423C17.9586 14.5213 17.9607 14.6026 17.9798 14.6807C17.999 14.7588 18.0346 14.8319 18.0844 14.8951C18.2883 15.2372 18.5217 15.561 18.7819 15.8626L18.7312 15.8963C18.2069 16.4994 17.8381 17.2217 17.6569 18.0001H12.9375V17.4376C12.9769 17.0944 13.6181 11.2501 17.4375 11.2501ZM12.9375 20.1432V19.1251H18C18.1125 19.1251 20.8125 19.1588 20.8125 21.9376V24.7501H18.5625V23.6251C18.5767 23.2519 18.5137 22.8798 18.3774 22.5322C18.2411 22.1845 18.0344 21.8688 17.7704 21.6047C17.5063 21.3406 17.1905 21.134 16.8429 20.9977C16.4952 20.8614 16.1232 20.7983 15.75 20.8126H12.8081C12.894 20.5999 12.938 20.3726 12.9375 20.1432ZM12.9375 30.9376C12.1405 30.9368 11.3695 30.6539 10.7611 30.1392C10.1526 29.6244 9.74596 28.9109 9.61312 28.1251H10.7662C10.8958 28.6017 11.1786 29.0225 11.571 29.3225C11.9634 29.6225 12.4436 29.785 12.9375 29.785C13.4314 29.785 13.9116 29.6225 14.304 29.3225C14.6964 29.0225 14.9792 28.6017 15.1088 28.1251H16.2619C16.129 28.9109 15.7224 29.6244 15.1139 30.1392C14.5055 30.6539 13.7345 30.9368 12.9375 30.9376ZM11.97 28.1251H13.905C13.8054 28.2929 13.6638 28.432 13.4942 28.5286C13.3245 28.6252 13.1327 28.676 12.9375 28.676C12.7423 28.676 12.5505 28.6252 12.3808 28.5286C12.2112 28.432 12.0696 28.2929 11.97 28.1251ZM7.3125 27.0001C7.38427 25.7054 7.7334 24.4412 8.33625 23.2932C8.56015 22.8769 8.89427 22.5302 9.30204 22.2911C9.7098 22.052 10.1755 21.9297 10.6481 21.9376H15.75C15.9748 21.9254 16.1997 21.9607 16.4099 22.0412C16.6202 22.1217 16.8111 22.2456 16.9703 22.4048C17.1295 22.564 17.2534 22.7549 17.3339 22.9651C17.4144 23.1754 17.4497 23.4003 17.4375 23.6251V25.3126C17.4375 25.9211 17.6349 26.5132 18 27.0001H7.3125ZM20.25 27.0001C19.9018 26.9991 19.5625 26.8904 19.2785 26.689C18.9945 26.4876 18.7798 26.2033 18.6637 25.8751H21.375C21.5218 25.8656 21.669 25.8869 21.8072 25.9376C21.9453 25.9883 22.0714 26.0672 22.1773 26.1694C22.2831 26.2716 22.3665 26.3947 22.4221 26.531C22.4777 26.6672 22.5042 26.8136 22.5 26.9607C22.3135 26.9856 22.1256 26.9987 21.9375 27.0001H20.25ZM23.8556 26.3419C23.7743 26.4339 23.6817 26.5152 23.58 26.5838C23.5182 26.1585 23.3277 25.7624 23.0341 25.4486C22.7404 25.1349 22.3578 24.9186 21.9375 24.8288V21.9376C21.9882 21.0198 21.6946 20.116 21.114 19.4034C20.5335 18.6907 19.7079 18.2204 18.7987 18.0844C18.9429 17.5799 19.19 17.1107 19.5244 16.7063C19.5389 16.6866 19.5521 16.6659 19.5637 16.6444C20.4369 17.3526 21.4874 17.8079 22.6012 17.9607L24.1875 24.8569C24.2766 25.3763 24.1573 25.9099 23.8556 26.3419ZM25.3125 24.6263L23.7656 18.0001C24.7174 18.0088 25.6579 17.793 26.5106 17.3701L29.1656 23.5576L26.7131 27.0001H24.75C24.9969 26.6617 25.1738 26.2774 25.2704 25.8698C25.367 25.4623 25.3813 25.0395 25.3125 24.6263ZM30.375 27.0001H29.4075C29.5313 26.7856 29.7225 26.618 29.9513 26.5232C30.1801 26.4284 30.4337 26.4118 30.673 26.4759C30.9122 26.54 31.1235 26.6812 31.2743 26.8777C31.4251 27.0742 31.5068 27.3149 31.5068 27.5626C31.5068 27.8102 31.4251 28.0509 31.2743 28.2474C31.1235 28.4439 30.9122 28.5851 30.673 28.6492C30.4337 28.7133 30.1801 28.6967 29.9513 28.6019C29.7225 28.5072 29.5313 28.3395 29.4075 28.1251H30.375C30.5242 28.1251 30.6673 28.0658 30.7727 27.9603C30.8782 27.8548 30.9375 27.7117 30.9375 27.5626C30.9375 27.4134 30.8782 27.2703 30.7727 27.1648C30.6673 27.0593 30.5242 27.0001 30.375 27.0001ZM28.0912 27.0001L28.2881 26.7244C28.2541 26.8144 28.226 26.9065 28.2038 27.0001H28.0912ZM30.375 30.9376C29.578 30.9368 28.807 30.6539 28.1986 30.1392C27.5901 29.6244 27.1835 28.9109 27.0506 28.1251H28.2038C28.3269 28.5995 28.6017 29.0208 28.9863 29.3248C29.3709 29.6288 29.8442 29.7988 30.3343 29.8091C30.8244 29.8194 31.3044 29.6694 31.7014 29.3818C32.0984 29.0943 32.3907 28.6849 32.5337 28.216C32.6767 27.7471 32.6626 27.2444 32.4937 26.7842C32.3248 26.324 32.0102 25.9316 31.5977 25.6667C31.1853 25.4017 30.6976 25.2787 30.2089 25.3163C29.7201 25.3539 29.257 25.5501 28.89 25.8751L30.0881 24.1876C30.1838 24.1876 30.2794 24.1876 30.375 24.1876C31.2701 24.1876 32.1286 24.5431 32.7615 25.1761C33.3944 25.809 33.75 26.6675 33.75 27.5626C33.75 28.4577 33.3944 29.3161 32.7615 29.949C32.1286 30.582 31.2701 30.9376 30.375 30.9376Z" fill="#FFCB21"/>
</svg>
