<svg width="176" height="175" viewBox="0 0 176 175" fill="none" xmlns="http://www.w3.org/2000/svg">
<path d="M77.8224 4.03613C83.4641 -1.34538 92.3384 -1.34538 97.9801 4.03613C101.973 7.8449 107.772 9.0775 112.969 7.22208C120.312 4.60051 128.419 8.21001 131.384 15.421C133.482 20.5245 138.279 24.0092 143.781 24.4279C151.555 25.0196 157.493 31.6145 157.269 39.408C157.11 44.9239 160.075 50.0581 164.931 52.6786C171.792 56.3812 174.535 64.8212 171.16 71.8497C168.771 76.8242 169.391 82.7202 172.762 87.0894C177.524 93.2627 176.596 102.088 170.655 107.137C166.449 110.71 164.617 116.348 165.919 121.71C167.759 129.287 163.322 136.972 155.84 139.167C150.546 140.721 146.579 145.127 145.587 150.555C144.186 158.225 137.006 163.441 129.279 162.403C123.81 161.669 118.394 164.08 115.28 168.636C110.881 175.073 102.2 176.918 95.5631 172.827C90.8655 169.932 84.9371 169.932 80.2395 172.827C73.6022 176.918 64.9218 175.073 60.5223 168.636C57.4085 164.08 51.9926 161.669 46.5235 162.403C38.7961 163.441 31.6167 158.225 30.2156 150.555C29.224 145.127 25.2571 140.721 19.9621 139.167C12.4808 136.972 8.0436 129.287 9.88328 121.71C11.1853 116.348 9.35331 110.71 5.14804 107.137C-0.793719 102.088 -1.72134 93.2627 3.04098 87.0894C6.41151 82.7202 7.0312 76.8242 4.64273 71.8497C1.26799 64.8212 4.01029 56.3812 10.8718 52.6786C15.728 50.0581 18.6923 44.9239 18.5336 39.408C18.3094 31.6145 24.2474 25.0196 32.0217 24.4279C37.524 24.0092 42.3202 20.5245 44.4187 15.421C47.3838 8.21001 55.4909 4.60051 62.8337 7.22208C68.0306 9.0775 73.8295 7.8449 77.8224 4.03613Z" fill="#FFCB21"/>
</svg>
