<svg width="32" height="32" viewBox="0 0 32 32" fill="none" xmlns="http://www.w3.org/2000/svg">
<g clip-path="url(#clip0_1_210)">
<path d="M16 7.125C11.1063 7.125 7.125 11.1063 7.125 16C7.125 20.8937 11.1063 24.875 16 24.875C20.8937 24.875 24.875 20.8937 24.875 16C24.875 11.1063 20.8937 7.125 16 7.125ZM16 23.625C11.7956 23.625 8.375 20.2044 8.375 16C8.375 11.7956 11.7956 8.375 16 8.375C20.2044 8.375 23.625 11.7956 23.625 16C23.625 20.2044 20.2044 23.625 16 23.625Z" fill="#FFCB21"/>
<path d="M31.6682 0.0730001C31.464 -0.0353749 31.2166 -0.0223124 31.0251 0.107063C27.9568 2.18025 26.125 5.62875 26.125 9.33181V17.4413C26.125 18.3111 26.4638 19.1289 27.0788 19.7439L28.25 20.9152V30.125C28.25 31.1589 29.0911 32 30.125 32C31.1589 32 32 31.1589 32 30.125V0.625C32 0.393813 31.8724 0.1815 31.6682 0.0730001ZM30.75 30.125C30.75 30.4696 30.4696 30.75 30.125 30.75C29.7804 30.75 29.5 30.4696 29.5 30.125V20.6562C29.5 20.4905 29.4341 20.3316 29.3169 20.2143L27.9626 18.86C27.5837 18.4811 27.375 17.9773 27.375 17.4413V9.33181C27.375 6.45806 28.6176 3.75719 30.75 1.89356V30.125Z" fill="#FFCB21"/>
<path d="M14.5661 11.0433C14.4306 10.7259 14.0632 10.5784 13.7458 10.7139C11.625 11.6193 10.2546 13.6942 10.2546 16C10.2546 16.3451 10.5345 16.625 10.8796 16.625C11.2248 16.625 11.5046 16.3451 11.5046 16C11.5046 14.1957 12.577 12.572 14.2366 11.8636C14.5541 11.7281 14.7016 11.3608 14.5661 11.0433Z" fill="#FFCB21"/>
<path d="M16 10.2546L15.9685 10.2547C15.6233 10.257 15.3454 10.5387 15.3477 10.8839C15.35 11.2276 15.6294 11.5047 15.9726 11.5047C15.974 11.5047 15.9755 11.5047 15.9769 11.5047L16 11.5046C16.3452 11.5046 16.625 11.2248 16.625 10.8796C16.625 10.5345 16.3452 10.2546 16 10.2546Z" fill="#FFCB21"/>
<path d="M24.6639 7.77994C23.5597 6.61644 22.2581 5.70094 20.7953 5.05894C19.2805 4.39419 17.6671 4.05713 16 4.05713C14.095 4.05713 12.274 4.4925 10.5876 5.35125C10.2801 5.50788 10.1576 5.88419 10.3143 6.19182C10.4709 6.49932 10.8473 6.62169 11.1549 6.46513C12.6639 5.69675 14.294 5.30713 16 5.30713C18.9623 5.30713 21.7172 6.49088 23.7573 8.64044C23.8801 8.76994 24.0453 8.83519 24.2107 8.83519C24.3652 8.83519 24.5199 8.77825 24.6408 8.6635C24.8912 8.42588 24.9015 8.03032 24.6639 7.77994Z" fill="#FFCB21"/>
<path d="M25.2707 22.5237C24.9999 22.3097 24.6069 22.3557 24.3929 22.6264C22.3495 25.2108 19.2905 26.6929 16 26.6929C13.9407 26.6929 11.9415 26.1064 10.2186 24.9968C9.92848 24.8099 9.5416 24.8937 9.35473 25.1838C9.16785 25.474 9.2516 25.8608 9.54179 26.0477C11.4669 27.2875 13.7002 27.9429 16 27.9429C19.675 27.9429 23.0915 26.2877 25.3734 23.4016C25.5874 23.1309 25.5415 22.7379 25.2707 22.5237Z" fill="#FFCB21"/>
<path d="M8.49737 23.6203L8.48819 23.6097C8.48487 23.6056 8.48156 23.6015 8.47812 23.5975C8.25581 23.3334 7.86156 23.2996 7.5975 23.5219C7.33344 23.7443 7.29956 24.1384 7.52194 24.4026L7.528 24.4098L7.52831 24.4095C7.53494 24.4179 7.54181 24.4263 7.54894 24.4345C7.67256 24.5785 7.84744 24.6524 8.02344 24.6524C8.16756 24.6524 8.31237 24.6028 8.43025 24.5016C8.69212 24.2768 8.72219 23.8822 8.49737 23.6203Z" fill="#FFCB21"/>
<path d="M7.75 0C7.40481 0 7.125 0.279813 7.125 0.625V7.375H5.9995C5.99956 7.3715 6 7.36812 6 7.36456V0.625C6 0.279813 5.72019 0 5.375 0C5.02981 0 4.75 0.279813 4.75 0.625V7.36456C4.75 7.36806 4.7505 7.3715 4.7505 7.375H3.6245C3.62456 7.3715 3.625 7.36812 3.625 7.36456V0.625C3.625 0.279813 3.34519 0 3 0C2.65481 0 2.375 0.279813 2.375 0.625V7.36456C2.375 7.36806 2.3755 7.3715 2.3755 7.375H1.25V0.625C1.25 0.279813 0.970187 0 0.625 0C0.279813 0 0 0.279813 0 0.625V8.25C0 9.78312 0.93025 11.1668 2.3125 11.7649V30.125C2.3125 31.1589 3.15363 32 4.1875 32C5.22137 32 6.0625 31.1589 6.0625 30.125V11.7649C7.44475 11.1668 8.375 9.78312 8.375 8.25V0.625C8.375 0.279813 8.09519 0 7.75 0ZM5.264 10.7262C4.99662 10.8035 4.8125 11.0483 4.8125 11.3267V30.125C4.8125 30.4696 4.53212 30.75 4.1875 30.75C3.84288 30.75 3.5625 30.4696 3.5625 30.125V11.3267C3.5625 11.0483 3.37844 10.8035 3.111 10.7262C2.13706 10.4448 1.42469 9.60881 1.27825 8.625H7.09669C6.95031 9.60881 6.23794 10.4448 5.264 10.7262Z" fill="#FFCB21"/>
</g>
<defs>
<clipPath id="clip0_1_210">
<rect width="32" height="32" fill="white"/>
</clipPath>
</defs>
</svg>